<svg width="116" height="116" viewBox="0 0 116 116" fill="none" xmlns="http://www.w3.org/2000/svg">
<rect x="0.5" y="0.5" width="115" height="115" rx="57.5" fill="#FFF0EC"/>
<rect x="0.5" y="0.5" width="115" height="115" rx="57.5" stroke="#FF5C35"/>
<g clip-path="url(#clip0_81_16)">
<path d="M58 33C53.0555 33 48.222 34.4662 44.1108 37.2133C39.9995 39.9603 36.7952 43.8648 34.903 48.4329C33.0108 53.0011 32.5157 58.0277 33.4804 62.8773C34.445 67.7268 36.826 72.1814 40.3223 75.6777C43.8187 79.174 48.2732 81.555 53.1228 82.5196C57.9723 83.4843 62.9989 82.9892 67.5671 81.097C72.1353 79.2048 76.0397 76.0005 78.7867 71.8893C81.5338 67.778 83 62.9445 83 58C83 51.3696 80.3661 45.0107 75.6777 40.3223C70.9893 35.6339 64.6304 33 58 33ZM37.6875 58C37.5475 57.9946 37.415 57.9352 37.3179 57.8342C37.2208 57.7332 37.1666 57.5985 37.1667 57.4583C37.3064 52.3111 39.3474 47.3979 42.8958 43.6667C42.9356 43.5996 42.99 43.5423 43.0549 43.499C43.1198 43.4557 43.1936 43.4276 43.2708 43.4167C43.34 43.4137 43.4091 43.4251 43.4737 43.4502C43.5382 43.4753 43.5968 43.5135 43.6458 43.5625L52.125 52.125C52.2213 52.2143 52.3478 52.264 52.4792 52.264C52.6105 52.264 52.737 52.2143 52.8333 52.125C53.9302 51.1597 55.2758 50.5214 56.7172 50.2825C58.1587 50.0436 59.6382 50.2138 60.9878 50.7736C62.3374 51.3334 63.503 52.2604 64.3522 53.4494C65.2013 54.6385 65.7001 56.0418 65.7917 57.5C65.7944 57.5684 65.8105 57.6356 65.8392 57.6978C65.8679 57.76 65.9085 57.8159 65.9588 57.8623C66.0092 57.9087 66.0681 57.9448 66.1324 57.9684C66.1966 57.9921 66.2649 58.0028 66.3333 58H78.3333C78.4734 58.0054 78.6058 58.0648 78.703 58.1658C78.8001 58.2668 78.8543 58.4015 78.8542 58.5417C78.7144 63.6889 76.6735 68.6021 73.125 72.3333C73.077 72.3851 73.0191 72.4265 72.9546 72.4552C72.8902 72.4838 72.8205 72.4991 72.75 72.5C72.6808 72.503 72.6117 72.4916 72.5472 72.4665C72.4826 72.4414 72.424 72.4031 72.375 72.3542L63.8958 63.875C63.7995 63.7857 63.673 63.736 63.5417 63.736C63.4103 63.736 63.2838 63.7857 63.1875 63.875C61.7665 65.1438 59.9259 65.8414 58.0208 65.8333C56.0328 65.8318 54.1202 65.0724 52.6726 63.7099C51.2249 62.3474 50.3511 60.4843 50.2292 58.5C50.2266 58.4297 50.2098 58.3607 50.1798 58.2971C50.1498 58.2335 50.1073 58.1766 50.0547 58.1299C50.0022 58.0831 49.9407 58.0475 49.874 58.0252C49.8073 58.0029 49.7368 57.9943 49.6667 58H37.6875Z" fill="#FF5C35"/>
<path d="M53.3125 58C53.3125 59.2432 53.8064 60.4355 54.6854 61.3146C55.5645 62.1936 56.7568 62.6875 58 62.6875C59.2432 62.6875 60.4355 62.1936 61.3146 61.3146C62.1936 60.4355 62.6875 59.2432 62.6875 58C62.6875 56.7568 62.1936 55.5645 61.3146 54.6854C60.4355 53.8064 59.2432 53.3125 58 53.3125C56.7568 53.3125 55.5645 53.8064 54.6854 54.6854C53.8064 55.5645 53.3125 56.7568 53.3125 58Z" fill="#FF5C35"/>
</g>
<defs>
<clipPath id="clip0_81_16">
<rect width="50" height="50" fill="white" transform="translate(33 33)"/>
</clipPath>
</defs>
</svg>
