<svg width="116" height="116" viewBox="0 0 116 116" fill="none" xmlns="http://www.w3.org/2000/svg">
<rect x="0.5" y="0.5" width="115" height="115" rx="57.5" fill="#FFF0EC"/>
<rect x="0.5" y="0.5" width="115" height="115" rx="57.5" stroke="#FF5C35"/>
<path fill-rule="evenodd" clip-rule="evenodd" d="M50.8 35.2C50.8 36.8576 50.1415 38.4473 48.9694 39.6194C47.7973 40.7915 46.2076 41.45 44.55 41.45V43.5333C46.2076 43.5333 47.7973 44.1918 48.9694 45.3639C50.1415 46.536 50.8 48.1257 50.8 49.7833H52.8833C52.8833 48.1257 53.5418 46.536 54.7139 45.3639C55.886 44.1918 57.4757 43.5333 59.1333 43.5333V41.45C57.4757 41.45 55.886 40.7915 54.7139 39.6194C53.5418 38.4473 52.8833 36.8576 52.8833 35.2H50.8ZM42.2583 49.9V53.95H46.3125V58.1166H42.2604V62.1666H38.0937V58.1166H34.0416V53.95H38.0916V49.9H42.2583ZM51.7979 52.9083V65.3645C50.2093 64.4473 48.3624 64.08 46.5437 64.3193C44.725 64.5587 43.0362 65.3915 41.739 66.6885C40.4418 67.9855 39.6088 69.6743 39.3693 71.493C39.1297 73.3117 39.4969 75.1586 40.4139 76.7473C41.3309 78.336 42.7465 79.5777 44.4411 80.28C46.1357 80.9822 48.0147 81.1056 49.7867 80.6312C51.5586 80.1567 53.1245 79.1108 54.2415 77.6557C55.3585 76.2006 55.9641 74.4177 55.9645 72.5833V55.3333L76.7979 48.3895V59.1145C75.2093 58.1973 73.3624 57.83 71.5437 58.0693C69.725 58.3087 68.0362 59.1415 66.739 60.4385C65.4418 61.7355 64.6088 63.4243 64.3693 65.243C64.1297 67.0617 64.4969 68.9086 65.4139 70.4973C66.3309 72.086 67.7465 73.3277 69.4411 74.03C71.1357 74.7322 73.0147 74.8556 74.7867 74.3812C76.5586 73.9067 78.1245 72.8608 79.2415 71.4057C80.3585 69.9506 80.9641 68.1677 80.9645 66.3333V35.3187L62.2583 41.552V46.6583H59.1333C58.3045 46.6583 57.5096 46.9875 56.9236 47.5736C56.3375 48.1596 56.0083 48.9545 56.0083 49.7833V52.9083H51.7979Z" fill="#FF5C35"/>
</svg>
