<svg width="116" height="116" viewBox="0 0 116 116" fill="none" xmlns="http://www.w3.org/2000/svg">
<rect x="0.5" y="0.5" width="115" height="115" rx="57.5" fill="#FFF0EC"/>
<rect x="0.5" y="0.5" width="115" height="115" rx="57.5" stroke="#FF5C35"/>
<path d="M51.75 68.4167C51.75 70.0743 51.0915 71.664 49.9194 72.8361C48.7473 74.0082 47.1576 74.6667 45.5 74.6667C43.8424 74.6667 42.2527 74.0082 41.0806 72.8361C39.9085 71.664 39.25 70.0743 39.25 68.4167C39.25 66.7591 39.9085 65.1694 41.0806 63.9973C42.2527 62.8252 43.8424 62.1667 45.5 62.1667C47.1576 62.1667 48.7473 62.8252 49.9194 63.9973C51.0915 65.1694 51.75 66.7591 51.75 68.4167ZM51.75 68.4167V41.3334H72.5833V58M51.75 49.6667H72.5833M72.5833 78.8334V66.3334M72.5833 66.3334L78.8333 72.5834M72.5833 66.3334L66.3333 72.5834" stroke="#FF5C35" stroke-width="2.91667" stroke-linecap="round" stroke-linejoin="round"/>
</svg>
