<svg width="141" height="24" viewBox="0 0 141 24" fill="none" xmlns="http://www.w3.org/2000/svg">
<path d="M50.3505 5.40806L46.1561 19.3218H43.8504L40.6126 8.27713L37.3748 19.3218H35.0691L30.8502 5.40806H33.1314L36.222 17.0874L39.5579 5.40806H41.8391L45.1014 17.1128L48.1429 5.40806H50.3505Z" fill="black"/>
<path d="M53.7186 3.14836C53.2935 3.14836 52.9337 2.99602 52.6394 2.69134C52.345 2.38666 52.1978 2.01427 52.1978 1.57418C52.1978 1.13408 52.345 0.761699 52.6394 0.457019C52.9337 0.15234 53.2935 0 53.7186 0C54.1274 0 54.4708 0.15234 54.7488 0.457019C55.0432 0.761699 55.1904 1.13408 55.1904 1.57418C55.1904 2.01427 55.0432 2.38666 54.7488 2.69134C54.4708 2.99602 54.1274 3.14836 53.7186 3.14836ZM54.7979 5.40806V19.3218H52.5658V5.40806H54.7979Z" fill="black"/>
<path d="M74.7666 5.15416C75.8131 5.15416 76.7452 5.38267 77.5628 5.83969C78.3805 6.27978 79.0264 6.94839 79.5006 7.8455C79.9748 8.74261 80.2119 9.83438 80.2119 11.1208V19.3218H78.0043V11.4509C78.0043 10.0629 77.6691 9.00497 76.9987 8.27713C76.3446 7.53236 75.4534 7.15997 74.325 7.15997C73.164 7.15997 72.2401 7.54928 71.5533 8.32791C70.8665 9.08961 70.5231 10.1983 70.5231 11.654V19.3218H68.3155V11.4509C68.3155 10.0629 67.9803 9.00497 67.3098 8.27713C66.6557 7.53236 65.7645 7.15997 64.6362 7.15997C63.4752 7.15997 62.5513 7.54928 61.8645 8.32791C61.1777 9.08961 60.8343 10.1983 60.8343 11.654V19.3218H58.6021V5.40806H60.8343V7.41387C61.2758 6.68602 61.8645 6.12744 62.6003 5.73813C63.3525 5.34882 64.1783 5.15416 65.0777 5.15416C66.206 5.15416 67.2035 5.41653 68.0702 5.94125C68.9369 6.46598 69.5828 7.23614 70.008 8.25174C70.3841 7.26999 71.0055 6.50829 71.8722 5.96664C72.7388 5.42499 73.7036 5.15416 74.7666 5.15416Z" fill="black"/>
<path d="M86.1055 7.99784C86.5634 7.16843 87.2338 6.49137 88.1169 5.96664C88.9999 5.44192 90.0056 5.17955 91.1339 5.17955C92.344 5.17955 93.4314 5.47577 94.3962 6.0682C95.361 6.66063 96.1214 7.4985 96.6774 8.58181C97.2334 9.64819 97.5114 10.8923 97.5114 12.3141C97.5114 13.719 97.2334 14.9716 96.6774 16.0718C96.1214 17.1721 95.3529 18.0269 94.3717 18.6362C93.4069 19.2456 92.3276 19.5503 91.1339 19.5503C89.9729 19.5503 88.9509 19.2879 88.0678 18.7632C87.2011 18.2385 86.547 17.5699 86.1055 16.7574V19.3218H83.8734V0.53319H86.1055V7.99784ZM95.2302 12.3141C95.2302 11.2647 95.0258 10.3506 94.617 9.57202C94.2082 8.79339 93.6522 8.20096 92.949 7.79472C92.2622 7.38848 91.5018 7.18536 90.6679 7.18536C89.8502 7.18536 89.0899 7.39694 88.3867 7.82011C87.6999 8.22635 87.1439 8.82724 86.7187 9.6228C86.3099 10.4014 86.1055 11.307 86.1055 12.3395C86.1055 13.389 86.3099 14.3115 86.7187 15.107C87.1439 15.8857 87.6999 16.4865 88.3867 16.9097C89.0899 17.316 89.8502 17.5191 90.6679 17.5191C91.5018 17.5191 92.2622 17.316 92.949 16.9097C93.6522 16.4865 94.2082 15.8857 94.617 15.107C95.0258 14.3115 95.2302 13.3805 95.2302 12.3141Z" fill="black"/>
<path d="M106.312 19.5503C105.053 19.5503 103.908 19.2541 102.878 18.6616C101.864 18.0692 101.063 17.2313 100.474 16.148C99.9016 15.0478 99.6155 13.7783 99.6155 12.3395C99.6155 10.9177 99.9098 9.66511 100.499 8.58181C101.104 7.48158 101.921 6.64371 102.951 6.0682C103.982 5.47577 105.134 5.17955 106.41 5.17955C107.685 5.17955 108.838 5.47577 109.868 6.0682C110.899 6.64371 111.708 7.47311 112.297 8.55642C112.902 9.63972 113.204 10.9008 113.204 12.3395C113.204 13.7783 112.894 15.0478 112.272 16.148C111.667 17.2313 110.841 18.0692 109.795 18.6616C108.748 19.2541 107.587 19.5503 106.312 19.5503ZM106.312 17.5191C107.113 17.5191 107.865 17.3244 108.568 16.9351C109.272 16.5458 109.836 15.9618 110.261 15.1832C110.702 14.4046 110.923 13.4567 110.923 12.3395C110.923 11.2224 110.711 10.2745 110.285 9.49585C109.86 8.71722 109.304 8.14172 108.618 7.76933C107.931 7.38002 107.187 7.18536 106.385 7.18536C105.568 7.18536 104.816 7.38002 104.129 7.76933C103.458 8.14172 102.919 8.71722 102.51 9.49585C102.101 10.2745 101.897 11.2224 101.897 12.3395C101.897 13.4736 102.093 14.43 102.485 15.2086C102.894 15.9872 103.434 16.5712 104.104 16.9605C104.775 17.3329 105.511 17.5191 106.312 17.5191Z" fill="black"/>
<path d="M115.477 19.3218V14.65H119.254V19.3218H115.477Z" fill="black"/>
<path d="M120.945 15.2848C120.945 14.3876 121.182 13.6006 121.656 12.9235C122.13 12.2295 122.784 11.6878 123.618 11.2985C124.468 10.9092 125.433 10.7146 126.513 10.7146C127.019 10.7146 127.494 10.7569 127.935 10.8415C128.393 10.9261 128.786 11.0531 129.113 11.2224V10.8161C129.113 10.1898 128.933 9.72436 128.573 9.41968C128.23 9.115 127.665 8.96266 126.88 8.96266C126.161 8.96266 125.482 9.08961 124.845 9.34351C124.223 9.58048 123.569 9.93594 122.882 10.4099L121.533 7.41387C122.4 6.83836 123.307 6.4152 124.256 6.14437C125.221 5.85662 126.251 5.71274 127.347 5.71274C129.391 5.71274 130.969 6.19515 132.081 7.15997C133.209 8.10786 133.773 9.52124 133.773 11.4001V13.9899C133.773 14.4469 133.838 14.7685 133.969 14.9547C134.1 15.124 134.329 15.2255 134.656 15.2594V19.3218C134.28 19.4064 133.92 19.4656 133.577 19.4995C133.25 19.5503 132.955 19.5757 132.694 19.5757C131.86 19.5757 131.222 19.4233 130.781 19.1186C130.355 18.797 130.077 18.3316 129.947 17.7222L129.848 17.2398C129.276 18.0015 128.614 18.5855 127.862 18.9917C127.109 19.381 126.308 19.5757 125.458 19.5757C124.607 19.5757 123.839 19.3895 123.152 19.0171C122.465 18.6447 121.926 18.1369 121.533 17.4937C121.141 16.8335 120.945 16.0972 120.945 15.2848ZM128.499 15.6148C128.679 15.4794 128.826 15.3355 128.941 15.1832C129.055 15.0139 129.113 14.8447 129.113 14.6754V13.6852C128.851 13.5836 128.548 13.499 128.205 13.4313C127.878 13.3636 127.584 13.3297 127.322 13.3297C126.766 13.3297 126.292 13.4736 125.899 13.7614C125.523 14.0491 125.335 14.413 125.335 14.8531C125.335 15.0901 125.401 15.3101 125.531 15.5133C125.662 15.6995 125.842 15.8518 126.071 15.9703C126.3 16.0718 126.562 16.1226 126.856 16.1226C127.134 16.1226 127.42 16.0803 127.714 15.9957C128.025 15.8941 128.287 15.7672 128.499 15.6148Z" fill="black"/>
<path d="M136.34 19.3218V5.96664H141V19.3218H136.34ZM136.34 4.84948V0.787089H141V4.84948H136.34Z" fill="black"/>
<path d="M9.87005 3.67241C8.67348 3.67241 7.70346 4.67129 7.70346 5.90348V9.95479L7.70158 9.95241C7.65973 10.8724 6.92212 11.6051 6.01833 11.6051C5.11453 11.6051 4.37692 10.8724 4.33507 9.95241L4.33319 9.95479V8.87825C4.33319 7.64606 3.36318 6.64718 2.1666 6.64718C0.970019 6.64718 0 7.64606 0 8.87825V18.7942C0 20.0263 0.970019 21.0252 2.1666 21.0252C3.36318 21.0252 4.33319 20.0263 4.33319 18.7942V17.8026C4.33319 16.8442 5.08765 16.0673 6.01833 16.0673C6.949 16.0673 7.70346 16.8442 7.70346 17.8026V21.7689C7.70346 23.0011 8.67348 24 9.87005 24C11.0666 24 12.0367 23.0011 12.0367 21.7689V5.90348C12.0367 4.67129 11.0666 3.67241 9.87005 3.67241Z" fill="#FF5C35"/>
<path d="M16.6108 3.67241C17.8073 3.67241 18.7774 4.67129 18.7774 5.90348V9.95479L18.7792 9.95241C18.8211 10.8724 19.5587 11.6051 20.4625 11.6051C21.3663 11.6051 22.1039 10.8724 22.1457 9.95241L22.1476 9.95479V8.87825C22.1476 7.64606 23.1176 6.64718 24.3142 6.64718C25.5108 6.64718 26.4808 7.64606 26.4808 8.87825V18.7942C26.4808 20.0263 25.5108 21.0252 24.3142 21.0252C23.1176 21.0252 22.1476 20.0263 22.1476 18.7942V17.8026C22.1476 16.8442 21.3932 16.0673 20.4625 16.0673C19.5318 16.0673 18.7774 16.8442 18.7774 17.8026V21.7689C18.7774 23.0011 17.8073 24 16.6108 24C15.4142 24 14.4442 23.0011 14.4442 21.7689V5.90348C14.4442 4.67129 15.4142 3.67241 16.6108 3.67241Z" fill="#FF5C35"/>
</svg>
